<svg width="27" height="27" viewBox="0 0 27 27" fill="none" xmlns="http://www.w3.org/2000/svg">
<g clip-path="url(#clip0_16_2506)">
<path d="M14.2284 1.37923C14.2284 0.929308 13.8637 0.564575 13.4138 0.564575C12.9639 0.564575 12.5991 0.929308 12.5991 1.37923V3.55164C12.5991 4.00156 12.9639 4.3663 13.4138 4.3663C13.8637 4.3663 14.2284 4.00156 14.2284 3.55164V1.37923Z" fill="#F39770"/>
<path d="M5.54134 3.21657C5.22319 2.89843 4.70739 2.89843 4.38925 3.21657C4.0711 3.53471 4.0711 4.05053 4.38925 4.36867L5.92537 5.90479C6.24351 6.22294 6.75933 6.22294 7.07747 5.90479C7.39561 5.58665 7.39561 5.07085 7.07747 4.7527L5.54134 3.21657Z" fill="#F39770"/>
<path d="M22.4388 4.36867C22.757 4.05053 22.757 3.53471 22.4388 3.21657C22.1207 2.89843 21.6048 2.89843 21.2867 3.21657L19.7506 4.7527C19.4324 5.07085 19.4324 5.58665 19.7506 5.90479C20.0687 6.22294 20.5846 6.22294 20.9027 5.90479L22.4388 4.36867Z" fill="#F39770"/>
<path d="M8.79752 12.2413C8.79752 9.69174 10.8643 7.62492 13.4139 7.62492C15.9634 7.62492 18.0303 9.69174 18.0303 12.2413C18.0303 12.6912 18.395 13.056 18.8449 13.056C19.2948 13.056 19.6596 12.6912 19.6596 12.2413C19.6596 8.79189 16.8633 5.99561 13.4139 5.99561C9.9645 5.99561 7.16821 8.79189 7.16821 12.2413C7.16821 12.6912 7.53295 13.056 7.98287 13.056C8.43279 13.056 8.79752 12.6912 8.79752 12.2413Z" fill="#F39770"/>
<path d="M2.55172 11.4266C2.1018 11.4266 1.73706 11.7914 1.73706 12.2413C1.73706 12.6912 2.1018 13.0559 2.55172 13.0559H4.72413C5.17405 13.0559 5.53879 12.6912 5.53879 12.2413C5.53879 11.7914 5.17405 11.4266 4.72413 11.4266H2.55172Z" fill="#F39770"/>
<path d="M22.1035 11.4266C21.6536 11.4266 21.2888 11.7914 21.2888 12.2413C21.2888 12.6912 21.6536 13.0559 22.1035 13.0559H24.2759C24.7258 13.0559 25.0905 12.6912 25.0905 12.2413C25.0905 11.7914 24.7258 11.4266 24.2759 11.4266H22.1035Z" fill="#F39770"/>
<path d="M4.72432 14.6852C4.27441 14.6852 3.90967 15.05 3.90967 15.4999C3.90967 15.9498 4.27441 16.3146 4.72432 16.3146H22.1036C22.5535 16.3146 22.9183 15.9498 22.9183 15.4999C22.9183 15.05 22.5535 14.6852 22.1036 14.6852H4.72432Z" fill="#F39770"/>
<path d="M7.98287 19.0301C7.53295 19.0301 7.16821 19.3948 7.16821 19.8447C7.16821 20.2947 7.53295 20.6594 7.98287 20.6594H18.8449C19.2948 20.6594 19.6596 20.2947 19.6596 19.8447C19.6596 19.3948 19.2948 19.0301 18.8449 19.0301H7.98287Z" fill="#F39770"/>
<path d="M11.2414 23.3749C10.7915 23.3749 10.4268 23.7397 10.4268 24.1896C10.4268 24.6395 10.7915 25.0042 11.2414 25.0042H15.5862C16.0361 25.0042 16.4009 24.6395 16.4009 24.1896C16.4009 23.7397 16.0361 23.3749 15.5862 23.3749H11.2414Z" fill="#F39770"/>
</g>
<defs>
<clipPath id="clip0_16_2506">
<rect width="26.069" height="26.069" fill="white" transform="translate(0.379395 0.29303)"/>
</clipPath>
</defs>
</svg>
