<svg width="31" height="31" viewBox="0 0 31 31" fill="none" xmlns="http://www.w3.org/2000/svg">
<rect width="31" height="31" rx="4" fill="#4B7C6C"/>
<path d="M4.98218 8.85715C4.98218 8.55157 5.23018 8.30357 5.53575 8.30357H19.9286C20.2342 8.30357 20.4822 8.55157 20.4822 8.85715C20.4822 9.16272 20.2342 9.41072 19.9286 9.41072H5.53575C5.23018 9.41072 4.98218 9.16272 4.98218 8.85715ZM25.4643 14.9464H5.53575C5.23018 14.9464 4.98218 15.1944 4.98218 15.5C4.98218 15.8056 5.23018 16.0536 5.53575 16.0536H25.4643C25.7699 16.0536 26.0179 15.8056 26.0179 15.5C26.0179 15.1944 25.7699 14.9464 25.4643 14.9464ZM15.5 21.5893H5.53575C5.23018 21.5893 4.98218 21.8373 4.98218 22.1429C4.98218 22.4484 5.23018 22.6964 5.53575 22.6964H15.5C15.8056 22.6964 16.0536 22.4484 16.0536 22.1429C16.0536 21.8373 15.8056 21.5893 15.5 21.5893Z" fill="white"/>
</svg>
