<svg width="12" height="9" viewBox="0 0 12 9" fill="none" xmlns="http://www.w3.org/2000/svg">
<path d="M11.2077 6.46893C11.1944 6.35271 11.0899 6.26872 10.9731 6.28239C10.3498 6.35361 9.82297 6.68983 9.31367 7.01502L9.22603 7.07092C8.75759 7.36877 8.21503 7.68498 7.64927 7.66455C7.23351 7.64955 6.80484 7.45353 6.34244 7.07126C6.42474 6.99263 6.50551 6.9134 6.58485 6.83545C6.83108 6.59328 7.06379 6.36457 7.32672 6.16796C8.09577 5.59295 9.12058 5.34265 10.0678 5.498C10.1827 5.51697 10.2924 5.43878 10.3114 5.32319C10.3303 5.2076 10.2521 5.09856 10.1366 5.07965C9.07683 4.90553 7.93222 5.18571 7.07275 5.82842C6.78691 6.04215 6.53309 6.2917 6.28755 6.53303C6.20141 6.61768 6.1135 6.70342 6.02448 6.78795C5.93546 6.70343 5.84756 6.61768 5.76141 6.53303C5.51587 6.2917 5.26205 6.04215 4.97621 5.82842C4.11675 5.18564 2.97117 4.90573 1.91241 5.07965C1.79688 5.09856 1.71862 5.20759 1.73753 5.32319C1.75658 5.43878 1.86645 5.51704 1.98114 5.498C2.92797 5.34244 3.95319 5.59282 4.72225 6.16796C4.98518 6.36458 5.21788 6.59328 5.46412 6.83545C5.54346 6.9134 5.62423 6.99263 5.70653 7.07126C5.24413 7.45353 4.81545 7.64955 4.39956 7.66455C3.83491 7.68498 3.29138 7.36877 2.82294 7.07092L2.73529 7.01502C2.226 6.68983 1.69917 6.35361 1.07586 6.28239C0.959368 6.26796 0.854611 6.35264 0.841226 6.46893C0.827975 6.58528 0.911476 6.69032 1.02783 6.70364C1.55369 6.76374 2.03842 7.07319 2.50714 7.37243L2.59547 7.42867C3.10036 7.74971 3.69123 8.08953 4.34669 8.08953C4.36933 8.08953 4.3921 8.08911 4.41487 8.08828C4.94256 8.06923 5.46969 7.82894 6.02448 7.35833C6.57927 7.82894 7.1064 8.06923 7.63395 8.08828C7.65686 8.08911 7.6795 8.08953 7.70227 8.08953C8.35773 8.08953 8.9486 7.74971 9.45349 7.42867L9.54182 7.37243C10.0105 7.07319 10.4953 6.76374 11.0211 6.70364C11.1375 6.69032 11.221 6.58528 11.2077 6.46893Z" fill="#F39770"/>
<path d="M3.69926 4.48543C3.598 4.46093 3.53511 4.3587 3.56688 4.25948C3.72494 3.76574 4.02741 3.32892 4.4372 3.00674C4.89658 2.64559 5.4641 2.44949 6.04844 2.45001C6.63278 2.45054 7.19995 2.64765 7.65867 3.00963C8.06789 3.33254 8.36957 3.7699 8.52676 4.26392C8.55834 4.3632 8.49527 4.46532 8.39397 4.48964C8.29267 4.51395 8.1916 4.4512 8.1588 4.35232C8.0222 3.94055 7.76769 3.57624 7.42497 3.3058C7.03273 2.99628 6.54775 2.82773 6.0481 2.82729C5.54845 2.82684 5.06317 2.99452 4.67037 3.30333C4.32717 3.57316 4.07201 3.93702 3.93467 4.34854C3.90169 4.44736 3.80052 4.50993 3.69926 4.48543Z" fill="#F39770"/>
<path d="M6.04639 2.45001L6.04639 0.556751" stroke="#F39770" stroke-width="0.184617" stroke-linecap="round"/>
<path d="M4.62646 2.92334L3.4432 1.26674" stroke="#F39770" stroke-width="0.184617" stroke-linecap="round"/>
<path d="M7.46631 2.92334L8.64958 1.26674" stroke="#F39770" stroke-width="0.184617" stroke-linecap="round"/>
<path d="M8.37109 3.86993L10.0692 3.27075" stroke="#F39770" stroke-width="0.184617" stroke-linecap="round"/>
<path d="M3.75586 3.86993L1.98142 3.20987" stroke="#F39770" stroke-width="0.184617" stroke-linecap="round"/>
</svg>
