<svg width="208" height="208" viewBox="0 0 208 208" fill="none" xmlns="http://www.w3.org/2000/svg">
<rect x="208" y="208" width="208" height="208" rx="104" transform="rotate(180 208 208)" fill="white"/>
<path d="M171.702 132.196C171.528 130.685 170.17 129.593 168.652 129.771C160.549 130.697 153.7 135.068 147.079 139.295L145.94 140.022C139.85 143.894 132.797 148.004 125.442 147.739C120.037 147.544 114.465 144.996 108.453 140.026C109.523 139.004 110.573 137.974 111.605 136.961C114.806 133.812 117.831 130.839 121.249 128.283C131.246 120.808 144.569 117.554 156.883 119.574C158.376 119.821 159.802 118.804 160.05 117.301C160.296 115.799 159.278 114.381 157.776 114.135C144 111.872 129.12 115.514 117.947 123.869C114.231 126.648 110.932 129.892 107.74 133.029C106.62 134.13 105.477 135.244 104.32 136.343C103.163 135.244 102.02 134.13 100.9 133.029C97.7081 129.892 94.4084 126.648 90.6925 123.869C79.5196 115.513 64.6272 111.875 50.8634 114.135C49.3615 114.381 48.3442 115.799 48.59 117.301C48.8376 118.804 50.2659 119.822 51.7569 119.574C64.0656 117.552 77.3933 120.807 87.391 128.283C90.8091 130.839 93.8342 133.812 97.0352 136.961C98.0667 137.974 99.1166 139.004 100.187 140.026C94.1754 144.996 88.6027 147.544 83.1961 147.739C75.8557 148.004 68.7899 143.894 62.7002 140.022L61.5608 139.295C54.94 135.068 48.0913 130.697 39.9883 129.771C38.474 129.583 37.1121 130.684 36.9381 132.196C36.7659 133.708 37.8514 135.074 39.364 135.247C46.2001 136.028 52.5016 140.051 58.5949 143.941L59.7432 144.672C66.3066 148.846 73.9879 153.263 82.5088 153.263C82.8031 153.263 83.0991 153.258 83.3952 153.247C90.2551 153 97.1077 149.876 104.32 143.758C111.532 149.876 118.385 153 125.243 153.247C125.541 153.258 125.835 153.263 126.131 153.263C134.652 153.263 142.333 148.846 148.897 144.672L150.045 143.941C156.138 140.051 162.44 136.028 169.276 135.247C170.789 135.074 171.874 133.708 171.702 132.196Z" fill="#F39770"/>
<path d="M74.0938 106.411C72.7774 106.092 71.9599 104.763 72.3728 103.473C74.4276 97.0548 78.3597 91.3762 83.687 87.1879C89.6588 82.4929 97.0365 79.9437 104.633 79.9505C112.229 79.9573 119.602 82.5197 125.566 87.2254C130.886 91.4232 134.807 97.1088 136.851 103.531C137.261 104.822 136.441 106.149 135.124 106.465C133.808 106.781 132.494 105.966 132.067 104.68C130.292 99.3273 126.983 94.5912 122.528 91.0756C117.429 87.0518 111.124 84.8608 104.628 84.855C98.133 84.8491 91.8245 87.0289 86.7182 91.0435C82.2566 94.5512 78.9395 99.2813 77.1541 104.631C76.7254 105.916 75.4101 106.729 74.0938 106.411Z" fill="#F39770"/>
<path d="M104.603 79.9504L104.603 55.3382" stroke="#F39770" stroke-width="2.4" stroke-linecap="round"/>
<path d="M86.1438 86.1035L70.7614 64.5678" stroke="#F39770" stroke-width="2.4" stroke-linecap="round"/>
<path d="M123.062 86.1035L138.444 64.5678" stroke="#F39770" stroke-width="2.4" stroke-linecap="round"/>
<path d="M134.827 98.4097L156.903 90.6203" stroke="#F39770" stroke-width="2.4" stroke-linecap="round"/>
<path d="M74.8301 98.4097L51.7625 89.8288" stroke="#F39770" stroke-width="2.4" stroke-linecap="round"/>
</svg>
