<svg width="62" height="62" viewBox="0 0 62 62" fill="none" xmlns="http://www.w3.org/2000/svg">
<rect x="62" y="62" width="62" height="62" rx="31" transform="rotate(180 62 62)" fill="#F8F2E1"/>
<path d="M53.015 40.1686C52.9584 39.6773 52.5167 39.3223 52.0231 39.3801C49.3882 39.6812 47.1612 41.1024 45.0083 42.4771L44.6378 42.7134C42.6576 43.9725 40.364 45.3092 37.9725 45.2228C36.2149 45.1594 34.4028 44.3308 32.4482 42.7148C32.7961 42.3824 33.1375 42.0475 33.4729 41.718C34.5138 40.6943 35.4975 39.7275 36.6089 38.8964C39.8599 36.4657 44.192 35.4076 48.1963 36.0643C48.6817 36.1445 49.1455 35.814 49.2261 35.3253C49.306 34.8367 48.9752 34.3757 48.4868 34.2958C44.0071 33.5598 39.1685 34.7442 35.5354 37.4611C34.3271 38.3645 33.2541 39.4195 32.2161 40.4396C31.852 40.7975 31.4804 41.1599 31.1041 41.5172C30.7278 41.1599 30.3562 40.7975 29.992 40.4396C28.9541 39.4194 27.8811 38.3645 26.6728 37.4611C23.0397 34.7439 18.197 33.5606 13.7214 34.2958C13.233 34.3757 12.9022 34.8367 12.9821 35.3253C13.0626 35.814 13.5271 36.1448 14.0119 36.0643C18.0144 35.4067 22.3482 36.4651 25.5992 38.8964C26.7107 39.7275 27.6944 40.6943 28.7353 41.718C29.0707 42.0475 29.4121 42.3824 29.76 42.7148C27.8053 44.3308 25.9932 45.1594 24.2351 45.2228C21.8482 45.3092 19.5506 43.9725 17.5704 42.7134L17.1999 42.4771C15.047 41.1024 12.8199 39.6812 10.1851 39.3801C9.69264 39.3191 9.2498 39.6771 9.19322 40.1686C9.13721 40.6605 9.49018 41.1045 9.98204 41.1608C12.205 41.4149 14.2541 42.723 16.2355 43.9879L16.6088 44.2257C18.7431 45.5828 21.2409 47.0193 24.0117 47.0193C24.1073 47.0193 24.2036 47.0175 24.2999 47.014C26.5305 46.9335 28.7589 45.9177 31.1041 43.9283C33.4493 45.9177 35.6776 46.9335 37.9077 47.014C38.0045 47.0175 38.1002 47.0193 38.1965 47.0193C40.9673 47.0193 43.465 45.5828 45.5993 44.2257L45.9727 43.9879C47.9541 42.723 50.0032 41.4149 52.2261 41.1608C52.718 41.1045 53.071 40.6605 53.015 40.1686Z" fill="#F39770"/>
<path d="M21.2913 31.7963C20.8634 31.6927 20.5977 31.2607 20.7319 30.8415C21.3998 28.7552 22.6779 26.9094 24.4095 25.548C26.3506 24.022 28.7488 23.1934 31.2179 23.1956C33.6871 23.1978 36.0837 24.0307 38.0221 25.5602C39.7513 26.9247 41.0261 28.7728 41.6903 30.8602C41.8237 31.2797 41.5572 31.7113 41.1292 31.814C40.7011 31.9168 40.2741 31.6516 40.1354 31.2338C39.5582 29.4938 38.4828 27.9544 37.0346 26.8117C35.3771 25.5038 33.3278 24.7916 31.2165 24.7897C29.1052 24.7878 27.0546 25.4964 25.3948 26.8013C23.9446 27.9414 22.8664 29.4789 22.286 31.2178C22.1467 31.6354 21.7192 31.8998 21.2913 31.7963Z" fill="#F39770"/>
<path d="M31.2081 23.1956V15.1956" stroke="#F39770" stroke-width="1.6" stroke-linecap="round"/>
<path d="M25.2081 25.1956L20.2081 18.1956" stroke="#F39770" stroke-width="1.6" stroke-linecap="round"/>
<path d="M37.2081 25.1956L42.2081 18.1956" stroke="#F39770" stroke-width="1.6" stroke-linecap="round"/>
<path d="M41.0326 29.1956L48.2081 26.6637" stroke="#F39770" stroke-width="1.6" stroke-linecap="round"/>
<path d="M21.5306 29.1956L14.0326 26.4064" stroke="#F39770" stroke-width="1.5" stroke-linecap="round"/>
</svg>
