<svg width="40" height="29" viewBox="0 0 40 29" fill="none" xmlns="http://www.w3.org/2000/svg">
<path d="M17.75 3.5V20C17.7475 22.3862 16.7985 24.6739 15.1112 26.3612C13.4239 28.0485 11.1362 28.9975 8.75 29C8.35217 29 7.97064 28.842 7.68934 28.5607C7.40803 28.2794 7.25 27.8978 7.25 27.5C7.25 27.1022 7.40803 26.7206 7.68934 26.4393C7.97064 26.158 8.35217 26 8.75 26C10.3413 26 11.8674 25.3679 12.9926 24.2426C14.1179 23.1174 14.75 21.5913 14.75 20V18.5H3.5C2.70435 18.5 1.94129 18.1839 1.37868 17.6213C0.81607 17.0587 0.5 16.2956 0.5 15.5V3.5C0.5 2.70435 0.81607 1.94129 1.37868 1.37868C1.94129 0.81607 2.70435 0.5 3.5 0.5H14.75C15.5456 0.5 16.3087 0.81607 16.8713 1.37868C17.4339 1.94129 17.75 2.70435 17.75 3.5ZM36.5 0.5H25.25C24.4543 0.5 23.6913 0.81607 23.1287 1.37868C22.5661 1.94129 22.25 2.70435 22.25 3.5V15.5C22.25 16.2956 22.5661 17.0587 23.1287 17.6213C23.6913 18.1839 24.4543 18.5 25.25 18.5H36.5V20C36.5 21.5913 35.8679 23.1174 34.7426 24.2426C33.6174 25.3679 32.0913 26 30.5 26C30.1022 26 29.7206 26.158 29.4393 26.4393C29.158 26.7206 29 27.1022 29 27.5C29 27.8978 29.158 28.2794 29.4393 28.5607C29.7206 28.842 30.1022 29 30.5 29C32.8862 28.9975 35.1739 28.0485 36.8612 26.3612C38.5485 24.6739 39.4975 22.3862 39.5 20V3.5C39.5 2.70435 39.1839 1.94129 38.6213 1.37868C38.0587 0.81607 37.2956 0.5 36.5 0.5Z" fill="white"/>
</svg>
