<svg width="24" height="24" viewBox="0 0 24 24" fill="none" xmlns="http://www.w3.org/2000/svg">
<path d="M20.1311 19.8478L14.2623 10.6247L20.0532 4.25438C20.1842 4.10674 20.2517 3.91343 20.2411 3.71636C20.2305 3.51929 20.1427 3.33435 19.9966 3.20161C19.8505 3.06888 19.6581 2.99907 19.4609 3.00731C19.2637 3.01555 19.0777 3.10117 18.9432 3.24562L13.427 9.31312L9.63105 3.34781C9.56336 3.24127 9.46987 3.15353 9.35926 3.09274C9.24864 3.03194 9.12446 3.00004 8.99824 3H4.49824C4.36376 2.99993 4.23174 3.03603 4.116 3.10449C4.00027 3.17296 3.90507 3.27129 3.84037 3.38918C3.77568 3.50707 3.74387 3.64018 3.74827 3.77458C3.75268 3.90898 3.79314 4.03973 3.86542 4.15313L9.73417 13.3753L3.94324 19.7503C3.87561 19.823 3.82308 19.9083 3.78868 20.0014C3.75428 20.0945 3.7387 20.1935 3.74284 20.2927C3.74698 20.3918 3.77077 20.4892 3.81281 20.5791C3.85486 20.669 3.91433 20.7496 3.98778 20.8164C4.06123 20.8831 4.14719 20.9346 4.24069 20.9679C4.3342 21.0012 4.43337 21.0156 4.53248 21.0103C4.63158 21.0049 4.72864 20.98 4.81804 20.9369C4.90743 20.8937 4.98737 20.8333 5.05324 20.7591L10.5695 14.6916L14.3654 20.6569C14.4337 20.7625 14.5274 20.8494 14.638 20.9093C14.7486 20.9693 14.8724 21.0005 14.9982 21H19.4982C19.6326 21 19.7644 20.9638 19.88 20.8954C19.9956 20.827 20.0907 20.7288 20.1554 20.611C20.22 20.4933 20.2519 20.3604 20.2476 20.2261C20.2433 20.0918 20.2031 19.9612 20.1311 19.8478ZM15.4098 19.5L5.86417 4.5H8.58292L18.1323 19.5H15.4098Z" fill="#0C130F"/>
</svg>
