<svg width="67" height="61" viewBox="0 0 67 61" fill="none" xmlns="http://www.w3.org/2000/svg">
<g clip-path="url(#clip0_5_620)">
<path d="M33.5 6.29711C33.8064 6.29711 34.1002 6.17352 34.3168 5.95353C34.5334 5.73353 34.6552 5.43515 34.6552 5.12403V1.28221C34.6552 0.971088 34.5334 0.672712 34.3168 0.452717C34.1002 0.232723 33.8064 0.109131 33.5 0.109131C33.1936 0.109131 32.8998 0.232723 32.6831 0.452717C32.4665 0.672712 32.3448 0.971088 32.3448 1.28221V5.12403C32.3448 5.43515 32.4665 5.73353 32.6831 5.95353C32.8998 6.17352 33.1936 6.29711 33.5 6.29711ZM18.2228 9.5958C18.3764 9.86475 18.6287 10.0609 18.9245 10.1414C19.2202 10.2219 19.5353 10.1801 19.8008 10.0251C19.9323 9.94823 20.0475 9.84574 20.14 9.72354C20.2324 9.60134 20.3002 9.46182 20.3394 9.31298C20.3787 9.16414 20.3887 9.0089 20.3688 8.85614C20.3489 8.70338 20.2996 8.5561 20.2236 8.42273L18.3314 5.09471C18.2558 4.96107 18.1549 4.84392 18.0346 4.74997C17.9143 4.65602 17.7768 4.58712 17.6302 4.54723C17.4836 4.50734 17.3307 4.49724 17.1802 4.51751C17.0298 4.53778 16.8847 4.58803 16.7534 4.66536C16.622 4.74228 16.5067 4.84477 16.4143 4.96697C16.3219 5.08918 16.2541 5.22869 16.2148 5.37753C16.1755 5.52637 16.1655 5.68161 16.1854 5.83437C16.2053 5.98714 16.2547 6.13442 16.3307 6.26779L18.2228 9.5958ZM58.2264 20.7952C58.4228 20.7952 58.6215 20.7447 58.8029 20.638L62.0801 18.7165C62.3433 18.5598 62.5347 18.3038 62.6127 18.0043C62.6907 17.7048 62.6488 17.3862 62.4963 17.1179C62.3438 16.8497 62.0929 16.6535 61.7985 16.5724C61.5042 16.4912 61.1901 16.5316 60.9249 16.6847L57.6477 18.6062C57.4265 18.7348 57.2534 18.9341 57.1555 19.1731C57.0576 19.412 57.0404 19.6772 57.1064 19.9272C57.1725 20.1771 57.3183 20.3978 57.5209 20.5549C57.7235 20.7119 57.9716 20.7964 58.2264 20.7952ZM47.198 10.0251C47.4633 10.1807 47.7786 10.2229 48.0746 10.1423C48.3705 10.0618 48.6228 9.86523 48.776 9.5958L50.6682 6.26779C50.8189 5.9985 50.8587 5.67958 50.7788 5.38063C50.6988 5.08168 50.5057 4.82697 50.2415 4.67208C49.9774 4.51719 49.6636 4.4747 49.3687 4.55388C49.0738 4.63305 48.8217 4.82747 48.6674 5.09471L46.7752 8.42273C46.622 8.69216 46.5805 9.01235 46.6598 9.31286C46.7391 9.61337 46.9327 9.86958 47.198 10.0251ZM4.91986 18.7165L8.19708 20.638C8.46226 20.7911 8.77631 20.8315 9.0707 20.7503C9.36509 20.6691 9.61591 20.473 9.76844 20.2048C9.92096 19.9365 9.9628 19.6178 9.88483 19.3184C9.80686 19.0189 9.61541 18.7629 9.35226 18.6062L6.07503 16.6847C5.80957 16.5298 5.49448 16.488 5.19873 16.5685C4.90299 16.6489 4.65069 16.8451 4.49707 17.1141C4.42107 17.2474 4.37171 17.3947 4.35183 17.5475C4.33195 17.7002 4.34193 17.8555 4.3812 18.0043C4.42047 18.1531 4.48826 18.2927 4.58069 18.4149C4.67312 18.5371 4.78838 18.6396 4.91986 18.7165ZM61.9542 38.6341H53.9708C54.285 37.1572 54.449 35.6451 54.449 34.1178C54.449 22.387 45.0505 12.8429 33.4988 12.8429C21.9471 12.8429 12.5486 22.387 12.5486 34.1178C12.5486 35.644 12.7127 37.1561 13.0269 38.6341H3.4886C3.18223 38.6341 2.88841 38.7577 2.67177 38.9777C2.45513 39.1977 2.33343 39.4961 2.33343 39.8072C2.33343 40.1183 2.45513 40.4167 2.67177 40.6367C2.88841 40.8567 3.18223 40.9803 3.4886 40.9803H61.9542C62.2606 40.9803 62.5544 40.8567 62.771 40.6367C62.9877 40.4167 63.1094 40.1183 63.1094 39.8072C63.1094 39.4961 62.9877 39.1977 62.771 38.9777C62.5544 38.7577 62.2606 38.6341 61.9542 38.6341ZM65.8344 32.9447H62.0512C61.7449 32.9447 61.451 33.0683 61.2344 33.2883C61.0178 33.5083 60.8961 33.8067 60.8961 34.1178C60.8961 34.4289 61.0178 34.7273 61.2344 34.9473C61.451 35.1673 61.7449 35.2909 62.0512 35.2909H65.8344C66.1408 35.2909 66.4346 35.1673 66.6512 34.9473C66.8679 34.7273 66.9896 34.4289 66.9896 34.1178C66.9896 33.8067 66.8679 33.5083 66.6512 33.2883C66.4346 33.0683 66.1408 32.9447 65.8344 32.9447ZM53.295 48.5889H12.1478C11.8414 48.5889 11.5476 48.7125 11.3309 48.9325C11.1143 49.1525 10.9926 49.4508 10.9926 49.762C10.9926 50.0731 11.1143 50.3715 11.3309 50.5914C11.5476 50.8114 11.8414 50.935 12.1478 50.935H53.295C53.6014 50.935 53.8952 50.8114 54.1118 50.5914C54.3285 50.3715 54.4502 50.0731 54.4502 49.762C54.4502 49.4508 54.3285 49.1525 54.1118 48.9325C53.8952 48.7125 53.6014 48.5889 53.295 48.5889ZM47.2015 58.5448H18.2413C17.9349 58.5448 17.6411 58.6684 17.4245 58.8884C17.2078 59.1084 17.0861 59.4067 17.0861 59.7179C17.0861 60.029 17.2078 60.3274 17.4245 60.5473C17.6411 60.7673 17.9349 60.8909 18.2413 60.8909H47.2015C47.5079 60.8909 47.8017 60.7673 48.0183 60.5473C48.235 60.3274 48.3567 60.029 48.3567 59.7179C48.3567 59.4067 48.235 59.1084 48.0183 58.8884C47.8017 58.6684 47.5079 58.5448 47.2015 58.5448ZM6.10391 34.1178C6.10391 33.8067 5.98221 33.5083 5.76557 33.2883C5.54893 33.0683 5.25511 32.9447 4.94874 32.9447H1.16555C0.859177 32.9447 0.565355 33.0683 0.348718 33.2883C0.132081 33.5083 0.010376 33.8067 0.010376 34.1178C0.010376 34.4289 0.132081 34.7273 0.348718 34.9473C0.565355 35.1673 0.859177 35.2909 1.16555 35.2909H4.94874C5.25511 35.2909 5.54893 35.1673 5.76557 34.9473C5.98221 34.7273 6.10391 34.4289 6.10391 34.1178Z" fill="#F39770"/>
</g>
<defs>
<clipPath id="clip0_5_620">
<rect width="67" height="61" fill="white"/>
</clipPath>
</defs>
</svg>
