<svg width="68" height="61" viewBox="0 0 68 61" fill="none" xmlns="http://www.w3.org/2000/svg">
<path d="M34 6.2971C34.3064 6.2971 34.6002 6.1735 34.8168 5.95351C35.0334 5.73352 35.1552 5.43514 35.1552 5.12402V1.28219C35.1552 0.971073 35.0334 0.672697 34.8168 0.452702C34.6002 0.232708 34.3064 0.109116 34 0.109116C33.6936 0.109116 33.3998 0.232708 33.1831 0.452702C32.9665 0.672697 32.8448 0.971073 32.8448 1.28219V5.12402C32.8448 5.43514 32.9665 5.73352 33.1831 5.95351C33.3998 6.1735 33.6936 6.2971 34 6.2971ZM18.7228 9.59579C18.8764 9.86474 19.1287 10.0609 19.4245 10.1414C19.7202 10.2219 20.0353 10.1801 20.3008 10.0251C20.4323 9.94822 20.5475 9.84573 20.64 9.72352C20.7324 9.60132 20.8002 9.46181 20.8394 9.31297C20.8787 9.16413 20.8887 9.00888 20.8688 8.85612C20.8489 8.70336 20.7996 8.55608 20.7236 8.42271L18.8314 5.09469C18.7558 4.96106 18.6549 4.8439 18.5346 4.74995C18.4143 4.656 18.2768 4.58711 18.1302 4.54721C17.9836 4.50732 17.8307 4.49722 17.6802 4.5175C17.5298 4.53777 17.3847 4.58801 17.2534 4.66535C17.122 4.74226 17.0067 4.84475 16.9143 4.96696C16.8219 5.08916 16.7541 5.22867 16.7148 5.37751C16.6755 5.52635 16.6655 5.6816 16.6854 5.83436C16.7053 5.98712 16.7547 6.1344 16.8307 6.26777L18.7228 9.59579ZM58.7264 20.7952C58.9228 20.7952 59.1215 20.7447 59.3029 20.638L62.5801 18.7165C62.8433 18.5598 63.0347 18.3038 63.1127 18.0043C63.1907 17.7048 63.1488 17.3862 62.9963 17.1179C62.8438 16.8496 62.5929 16.6535 62.2985 16.5724C62.0042 16.4912 61.6901 16.5316 61.4249 16.6847L58.1477 18.6062C57.9265 18.7348 57.7534 18.9341 57.6555 19.1731C57.5576 19.412 57.5404 19.6772 57.6064 19.9271C57.6725 20.1771 57.8183 20.3978 58.0209 20.5549C58.2235 20.7119 58.4716 20.7964 58.7264 20.7952ZM47.698 10.0251C47.9633 10.1807 48.2786 10.2228 48.5746 10.1423C48.8705 10.0618 49.1228 9.86521 49.276 9.59579L51.1682 6.26777C51.3189 5.99848 51.3587 5.67956 51.2788 5.38061C51.1988 5.08166 51.0057 4.82695 50.7415 4.67206C50.4774 4.51717 50.1636 4.47468 49.8687 4.55386C49.5738 4.63304 49.3217 4.82746 49.1674 5.09469L47.2752 8.42271C47.122 8.69214 47.0805 9.01233 47.1598 9.31284C47.2391 9.61335 47.4327 9.86957 47.698 10.0251ZM5.41986 18.7165L8.69708 20.638C8.96226 20.7911 9.27631 20.8314 9.5707 20.7503C9.86509 20.6691 10.1159 20.473 10.2684 20.2047C10.421 19.9365 10.4628 19.6178 10.3848 19.3183C10.3069 19.0189 10.1154 18.7629 9.85226 18.6062L6.57503 16.6847C6.30957 16.5298 5.99448 16.488 5.69873 16.5684C5.40299 16.6489 5.15069 16.8451 4.99707 17.114C4.92107 17.2474 4.87171 17.3947 4.85183 17.5474C4.83195 17.7002 4.84193 17.8555 4.8812 18.0043C4.92047 18.1531 4.98826 18.2926 5.08069 18.4149C5.17312 18.5371 5.28838 18.6395 5.41986 18.7165ZM62.4542 38.6341H54.4708C54.785 37.1572 54.949 35.6451 54.949 34.1178C54.949 22.387 45.5505 12.8429 33.9988 12.8429C22.4471 12.8429 13.0486 22.387 13.0486 34.1178C13.0486 35.644 13.2127 37.1561 13.5269 38.6341H3.9886C3.68223 38.6341 3.38841 38.7577 3.17177 38.9777C2.95513 39.1977 2.83343 39.4961 2.83343 39.8072C2.83343 40.1183 2.95513 40.4167 3.17177 40.6367C3.38841 40.8567 3.68223 40.9803 3.9886 40.9803H62.4542C62.7606 40.9803 63.0544 40.8567 63.271 40.6367C63.4877 40.4167 63.6094 40.1183 63.6094 39.8072C63.6094 39.4961 63.4877 39.1977 63.271 38.9777C63.0544 38.7577 62.7606 38.6341 62.4542 38.6341ZM66.3344 32.9447H62.5512C62.2449 32.9447 61.951 33.0683 61.7344 33.2883C61.5178 33.5083 61.3961 33.8067 61.3961 34.1178C61.3961 34.4289 61.5178 34.7273 61.7344 34.9473C61.951 35.1673 62.2449 35.2909 62.5512 35.2909H66.3344C66.6408 35.2909 66.9346 35.1673 67.1512 34.9473C67.3679 34.7273 67.4896 34.4289 67.4896 34.1178C67.4896 33.8067 67.3679 33.5083 67.1512 33.2883C66.9346 33.0683 66.6408 32.9447 66.3344 32.9447ZM53.795 48.5889H12.6478C12.3414 48.5889 12.0476 48.7125 11.8309 48.9325C11.6143 49.1524 11.4926 49.4508 11.4926 49.7619C11.4926 50.0731 11.6143 50.3714 11.8309 50.5914C12.0476 50.8114 12.3414 50.935 12.6478 50.935H53.795C54.1014 50.935 54.3952 50.8114 54.6118 50.5914C54.8285 50.3714 54.9502 50.0731 54.9502 49.7619C54.9502 49.4508 54.8285 49.1524 54.6118 48.9325C54.3952 48.7125 54.1014 48.5889 53.795 48.5889ZM47.7015 58.5448H18.7413C18.4349 58.5448 18.1411 58.6684 17.9245 58.8884C17.7078 59.1083 17.5861 59.4067 17.5861 59.7178C17.5861 60.029 17.7078 60.3273 17.9245 60.5473C18.1411 60.7673 18.4349 60.8909 18.7413 60.8909H47.7015C48.0079 60.8909 48.3017 60.7673 48.5183 60.5473C48.735 60.3273 48.8567 60.029 48.8567 59.7178C48.8567 59.4067 48.735 59.1083 48.5183 58.8884C48.3017 58.6684 48.0079 58.5448 47.7015 58.5448ZM6.60391 34.1178C6.60391 33.8067 6.48221 33.5083 6.26557 33.2883C6.04893 33.0683 5.75511 32.9447 5.44874 32.9447H1.66555C1.35918 32.9447 1.06535 33.0683 0.848718 33.2883C0.632081 33.5083 0.510376 33.8067 0.510376 34.1178C0.510376 34.4289 0.632081 34.7273 0.848718 34.9473C1.06535 35.1673 1.35918 35.2909 1.66555 35.2909H5.44874C5.75511 35.2909 6.04893 35.1673 6.26557 34.9473C6.48221 34.7273 6.60391 34.4289 6.60391 34.1178Z" fill="#F39770"/>
</svg>
