<svg width="66" height="66" viewBox="0 0 66 66" fill="none" xmlns="http://www.w3.org/2000/svg">
<path d="M19.009 1.93933V50.4396H15.1654C13.2582 50.4396 10.6687 51.5276 9.07983 53.6523V8.2763C9.07983 4.78218 11.9237 1.93835 15.4178 1.93835H19.009V1.93933Z" fill="#F39770"/>
<path d="M15.9215 60.7065C15.7284 60.7065 15.5433 60.6298 15.4068 60.4933C15.2703 60.3568 15.1936 60.1716 15.1936 59.9786C15.1936 59.7855 15.2703 59.6003 15.4068 59.4638C15.5433 59.3273 15.7284 59.2506 15.9215 59.2506H56.2067C56.1506 58.4016 56.1392 57.5502 56.1728 56.6999H15.9225C15.7294 56.6999 15.5443 56.6232 15.4077 56.4867C15.2712 56.3502 15.1945 56.165 15.1945 55.972C15.1945 55.7789 15.2712 55.5938 15.4077 55.4572C15.5443 55.3207 15.7294 55.244 15.9225 55.244H56.2815C56.4057 54.0968 56.6115 52.9767 56.9211 51.8907H15.376C12.4914 51.8907 9.57871 54.1939 9.14777 57.0396C8.59842 60.8152 11.483 64.0609 15.1703 64.0609H55.737C55.8794 64.0599 56.0199 64.0274 56.1483 63.9656C56.2767 63.9038 56.3897 63.8143 56.4793 63.7036C56.5689 63.5928 56.6328 63.4635 56.6664 63.3251C56.7 63.1866 56.7025 63.0425 56.6736 62.9029C56.535 62.1752 56.4234 61.4425 56.3387 60.7065H15.9215ZM43.8337 21.6908C44.001 21.7873 44.1231 21.9464 44.1732 22.1329C44.2232 22.3195 44.1971 22.5183 44.1006 22.6857C44.0041 22.853 43.845 22.9751 43.6584 23.0252C43.4719 23.0752 43.2731 23.0491 43.1057 22.9526L39.3301 20.7726V25.1315C39.3301 25.3246 39.2535 25.5098 39.1169 25.6463C38.9804 25.7828 38.7953 25.8595 38.6022 25.8595C38.4091 25.8595 38.224 25.7828 38.0875 25.6463C37.951 25.5098 37.8743 25.3246 37.8743 25.1315V20.7726L34.0967 22.9526C34.0139 23.0004 33.9224 23.0314 33.8276 23.0438C33.7328 23.0563 33.6364 23.0499 33.544 23.0252C33.4517 23.0004 33.3651 22.9576 33.2892 22.8994C33.2133 22.8411 33.1497 22.7685 33.1019 22.6857C33.0541 22.6028 33.0231 22.5114 33.0106 22.4165C32.9982 22.3217 33.0045 22.2253 33.0293 22.1329C33.0541 22.0406 33.0968 21.954 33.1551 21.8781C33.2133 21.8022 33.2859 21.7386 33.3688 21.6908L37.1444 19.5118L33.3688 17.3329C33.2859 17.2851 33.2133 17.2214 33.1551 17.1456C33.0968 17.0697 33.0541 16.9831 33.0293 16.8907C33.0045 16.7983 32.9982 16.702 33.0106 16.6071C33.0231 16.5123 33.0541 16.4209 33.1019 16.338C33.1497 16.2552 33.2133 16.1825 33.2892 16.1243C33.3651 16.066 33.4517 16.0233 33.544 15.9985C33.6364 15.9737 33.7328 15.9674 33.8276 15.9798C33.9224 15.9923 34.0139 16.0233 34.0967 16.0711L37.8733 18.251V13.8921C37.8733 13.6991 37.95 13.5139 38.0865 13.3774C38.223 13.2409 38.4082 13.1642 38.6012 13.1642C38.7943 13.1642 38.9795 13.2409 39.116 13.3774C39.2525 13.5139 39.3292 13.6991 39.3292 13.8921V18.251L43.1057 16.0721C43.2728 15.9771 43.4707 15.952 43.6563 16.0024C43.8418 16.0527 43.9998 16.1744 44.0959 16.3409C44.1921 16.5074 44.2184 16.7051 44.1693 16.8909C44.1202 17.0768 43.9995 17.2356 43.8337 17.3329L40.0581 19.5118L43.8337 21.6908Z" fill="#F39770"/>
<path d="M54.1103 1.94324H20.4639V50.4358H56.9192V4.75212C56.9192 4.00716 56.6232 3.29271 56.0965 2.76594C55.5697 2.23917 54.8552 1.94324 54.1103 1.94324ZM49.0982 45.0907H28.1043C27.9113 45.0907 27.7261 45.014 27.5896 44.8775C27.4531 44.741 27.3764 44.5559 27.3764 44.3628C27.3764 44.1697 27.4531 43.9846 27.5896 43.8481C27.7261 43.7116 27.9113 43.6349 28.1043 43.6349H49.0982C49.2912 43.6349 49.4764 43.7116 49.6129 43.8481C49.7494 43.9846 49.8261 44.1697 49.8261 44.3628C49.8261 44.5559 49.7494 44.741 49.6129 44.8775C49.4764 45.014 49.2912 45.0907 49.0982 45.0907ZM49.0982 38.3141H28.1043C27.9113 38.3141 27.7261 38.2374 27.5896 38.1009C27.4531 37.9644 27.3764 37.7792 27.3764 37.5862C27.3764 37.3931 27.4531 37.2079 27.5896 37.0714C27.7261 36.9349 27.9113 36.8582 28.1043 36.8582H49.0982C49.2912 36.8582 49.4764 36.9349 49.6129 37.0714C49.7494 37.2079 49.8261 37.3931 49.8261 37.5862C49.8261 37.7792 49.7494 37.9644 49.6129 38.1009C49.4764 38.2374 49.2912 38.3141 49.0982 38.3141ZM38.6003 29.7312C32.9641 29.7312 28.378 25.1471 28.378 19.5119C28.378 13.8776 32.9641 9.2935 38.6003 9.2935C44.2365 9.2935 48.8225 13.8776 48.8225 19.5119C48.8225 25.1471 44.2375 29.7312 38.6003 29.7312Z" fill="#F39770"/>
<ellipse cx="38.6896" cy="17.6379" rx="9.10345" ry="8.53448" fill="#F8F2E1"/>
<path d="M46.3717 22.5781C46.3515 22.4027 46.1938 22.2759 46.0176 22.2965C45.0768 22.404 44.2817 22.9115 43.5131 23.4023L43.3808 23.4866C42.6738 23.9361 41.855 24.4134 41.0011 24.3826C40.3736 24.3599 39.7267 24.0641 39.0288 23.4871C39.153 23.3685 39.2749 23.2489 39.3947 23.1312C39.7663 22.7658 40.1175 22.4206 40.5143 22.1238C41.675 21.256 43.2217 20.8783 44.6513 21.1127C44.8246 21.1414 44.9902 21.0233 45.0189 20.8489C45.0475 20.6744 44.9294 20.5099 44.755 20.4813C43.1556 20.2185 41.4282 20.6414 40.131 21.6114C39.6996 21.934 39.3165 22.3106 38.946 22.6748C38.816 22.8026 38.6833 22.932 38.5489 23.0595C38.4146 22.932 38.2819 22.8026 38.1519 22.6748C37.7813 22.3106 37.3983 21.934 36.9669 21.6114C35.6697 20.6413 33.9408 20.2189 32.3429 20.4813C32.1685 20.5099 32.0504 20.6744 32.0789 20.8489C32.1077 21.0233 32.2735 21.1415 32.4466 21.1127C33.8756 20.8779 35.4229 21.2558 36.5836 22.1238C36.9804 22.4206 37.3316 22.7658 37.7032 23.1312C37.823 23.2489 37.9449 23.3685 38.0691 23.4871C37.3712 24.0641 36.7242 24.3599 36.0966 24.3826C35.2444 24.4134 34.4241 23.9361 33.7171 23.4866L33.5848 23.4023C32.8161 22.9115 32.021 22.404 31.0803 22.2965C30.9045 22.2748 30.7464 22.4026 30.7262 22.5781C30.7062 22.7537 30.8322 22.9122 31.0078 22.9323C31.8015 23.023 32.5331 23.49 33.2405 23.9417L33.3738 24.0265C34.1358 24.5111 35.0275 25.0239 36.0168 25.0239C36.0509 25.0239 36.0853 25.0233 36.1197 25.0221C36.9161 24.9933 37.7116 24.6306 38.5489 23.9204C39.3862 24.6306 40.1818 24.9933 40.978 25.0221C41.0126 25.0233 41.0467 25.0239 41.0811 25.0239C42.0704 25.0239 42.9621 24.5111 43.7241 24.0265L43.8574 23.9417C44.5648 23.49 45.2964 23.023 46.09 22.9323C46.2657 22.9122 46.3917 22.7537 46.3717 22.5781Z" fill="#F39770"/>
<path d="M35.0399 19.5846C34.8871 19.5476 34.7922 19.3933 34.8401 19.2436C35.0787 18.4984 35.5352 17.8392 36.1537 17.3529C36.847 16.8079 37.7035 16.5119 38.5854 16.5127C39.4673 16.5135 40.3233 16.811 41.0156 17.3573C41.6332 17.8446 42.0885 18.5047 42.3257 19.2503C42.3734 19.4001 42.2782 19.5543 42.1253 19.591C41.9724 19.6277 41.8199 19.533 41.7704 19.3837C41.5643 18.7623 41.1801 18.2124 40.6629 17.8043C40.0709 17.3371 39.339 17.0828 38.5849 17.0821C37.8308 17.0814 37.0984 17.3345 36.5056 17.8006C35.9876 18.2078 35.6025 18.7569 35.3952 19.378C35.3454 19.5272 35.1928 19.6216 35.0399 19.5846Z" fill="#F39770"/>
<path d="M38.5817 16.5127L38.5817 13.6553" stroke="#F39770" stroke-width="0.309169" stroke-linecap="round"/>
<path d="M36.4388 17.2269L34.653 14.7267" stroke="#F39770" stroke-width="0.309169" stroke-linecap="round"/>
<path d="M40.7247 17.2269L42.5106 14.7267" stroke="#F39770" stroke-width="0.309169" stroke-linecap="round"/>
<path d="M42.0908 18.6555L44.6537 17.7512" stroke="#F39770" stroke-width="0.309169" stroke-linecap="round"/>
<path d="M35.1252 18.6555L32.4472 17.6593" stroke="#F39770" stroke-width="0.309169" stroke-linecap="round"/>
</svg>
