<svg width="53" height="52" viewBox="0 0 53 52" fill="none" xmlns="http://www.w3.org/2000/svg">
<g clip-path="url(#clip0_280_854)">
<path d="M43.875 9.15527e-05H9.30375C8.4624 9.15527e-05 7.7803 0.682188 7.7803 1.52354V6.06858H6.07801C5.23666 6.06858 4.55457 6.75067 4.55457 7.59202C4.55457 8.43337 5.23666 9.11547 6.07801 9.11547H7.78041V13.3811H6.07801C5.23666 13.3811 4.55457 14.0632 4.55457 14.9046C4.55457 15.7459 5.23666 16.428 6.07801 16.428H7.78041V20.6936H6.07801C5.23666 20.6936 4.55457 21.3757 4.55457 22.2171C4.55457 23.0584 5.23666 23.7405 6.07801 23.7405H7.78041V28.0062H6.07801C5.23666 28.0062 4.55457 28.6883 4.55457 29.5296C4.55457 30.371 5.23666 31.0531 6.07801 31.0531H7.78041V35.3187H6.07801C5.23666 35.3187 4.55457 36.0008 4.55457 36.8421C4.55457 37.6835 5.23666 38.3656 6.07801 38.3656H7.78041V42.6312H6.07801C5.23666 42.6312 4.55457 43.3133 4.55457 44.1547C4.55457 44.996 5.23666 45.6781 6.07801 45.6781H7.78041V50.4766C7.78041 51.3179 8.4625 52 9.30385 52H43.8751C46.3951 52 48.4454 49.9497 48.4454 47.4297V4.57042C48.4453 2.05034 46.395 9.15527e-05 43.875 9.15527e-05ZM45.3984 47.4297C45.3984 48.2697 44.715 48.9531 43.875 48.9531H10.8272V45.6781H12.8233C13.6647 45.6781 14.3468 44.996 14.3468 44.1547C14.3468 43.3133 13.6647 42.6312 12.8233 42.6312H10.8272V38.3656H12.8233C13.6647 38.3656 14.3468 37.6835 14.3468 36.8421C14.3468 36.0008 13.6647 35.3187 12.8233 35.3187H10.8272V31.0531H12.8233C13.6647 31.0531 14.3468 30.371 14.3468 29.5296C14.3468 28.6883 13.6647 28.0062 12.8233 28.0062H10.8272V23.7405H12.8233C13.6647 23.7405 14.3468 23.0584 14.3468 22.2171C14.3468 21.3757 13.6647 20.6936 12.8233 20.6936H10.8272V16.428H12.8233C13.6647 16.428 14.3468 15.7459 14.3468 14.9046C14.3468 14.0632 13.6647 13.3811 12.8233 13.3811H10.8272V9.11547H12.8233C13.6647 9.11547 14.3468 8.43337 14.3468 7.59202C14.3468 6.75067 13.6647 6.06858 12.8233 6.06858H10.8272V3.04698H43.875C44.715 3.04698 45.3984 3.7304 45.3984 4.57042V47.4297Z" fill="#F39770"/>
<path d="M38.6805 6.09303H18.9174C18.076 6.09303 17.3939 6.77513 17.3939 7.61648V17.9514C17.3939 18.7928 18.076 19.4749 18.9174 19.4749H38.6806C39.5219 19.4749 40.204 18.7928 40.204 17.9514V7.61648C40.2039 6.77503 39.5219 6.09303 38.6805 6.09303ZM37.1571 16.428H20.4408V9.13992H37.1572L37.1571 16.428Z" fill="#F39770"/>
<path d="M38.0165 24.9593H19.4707C18.6294 24.9593 17.9473 25.6414 17.9473 26.4827C17.9473 27.3241 18.6294 28.0062 19.4707 28.0062H38.0165C38.8579 28.0062 39.5399 27.3241 39.5399 26.4827C39.5399 25.6414 38.8579 24.9593 38.0165 24.9593Z" fill="#F39770"/>
<path d="M38.0165 31.0531H19.4707C18.6294 31.0531 17.9473 31.7352 17.9473 32.5765C17.9473 33.4179 18.6294 34.1 19.4707 34.1H38.0165C38.8579 34.1 39.5399 33.4179 39.5399 32.5765C39.5399 31.7352 38.8579 31.0531 38.0165 31.0531Z" fill="#F39770"/>
</g>
<defs>
<clipPath id="clip0_280_854">
<rect width="51.9999" height="51.9999" fill="white" transform="translate(0.5 9.15527e-05)"/>
</clipPath>
</defs>
</svg>
