<svg width="52" height="51" viewBox="0 0 52 51" fill="none" xmlns="http://www.w3.org/2000/svg">
<path d="M41.4785 39.7188C46.1558 33.8237 47.7295 21.3958 48.283 11.6517C48.4091 9.37159 47.5569 7.14127 45.9453 5.53196C44.3336 3.92109 42.1041 3.06351 39.8224 3.20203C30.0911 3.74794 17.6163 5.38711 11.7789 10.0181C3.01682 17.5148 2.31304 30.9831 9.72949 39.5273L4.16927 45.0924C3.54749 45.715 3.54749 46.7251 4.17082 47.3461C4.48132 47.6574 4.8891 47.813 5.29688 47.813C5.70465 47.813 6.11321 47.6574 6.42448 47.3461L11.9848 41.7807C15.9205 45.1623 20.8057 46.8698 25.7028 46.8698C31.4567 46.8764 37.504 44.4459 41.4785 39.7188ZM43.6932 7.78717C44.6776 8.77082 45.1772 10.0813 45.1002 11.4758C44.7636 17.5683 44.0832 22.8954 43.1204 27.2468L30.7296 23.0192L37.6147 16.1279C38.2365 15.5053 38.2365 14.4952 37.6139 13.8742C36.9913 13.2517 35.982 13.2517 35.3595 13.8742L28.4713 20.7685L24.2157 8.38279C28.5695 7.41364 33.9016 6.72659 40.0014 6.3833C41.3913 6.3086 42.708 6.80198 43.6932 7.78717ZM39.6532 36.8013L22.7292 31.0267L28.2205 25.5306L42.3416 30.3485C41.5711 33.0332 40.6687 35.2099 39.6532 36.8013ZM21.1138 9.16536L25.9632 23.279L20.4732 28.7739L14.6843 11.8536C16.2711 10.8395 18.4393 9.93695 21.1138 9.16536ZM12.1091 14.1763L17.9634 31.2858L11.9814 37.2733C6.39501 30.6037 6.44044 20.8012 12.1091 14.1763ZM20.2199 33.5382L37.3335 39.3772C30.7134 45.0524 20.9119 45.106 14.237 39.5266L20.2199 33.5382Z" fill="#F39770"/>
</svg>
