<svg width="65" height="55" viewBox="0 0 65 55" fill="none" xmlns="http://www.w3.org/2000/svg">
<g clip-path="url(#clip0_5_642)">
<path d="M59.5573 5.38387C56.6999 2.51827 52.9538 0.710845 48.9345 0.258547C44.9152 -0.19375 40.8617 0.735976 37.4401 2.89498L44.608 10.2C44.8943 10.5173 45.115 10.8882 45.2571 11.2914C45.3993 11.6946 45.4601 12.1221 45.4361 12.549C45.412 12.9759 45.3036 13.3938 45.1172 13.7784C44.9307 14.1631 44.6698 14.5069 44.3497 14.7899C43.7527 15.317 42.9823 15.6048 42.1864 15.598C41.7304 15.6015 41.2788 15.5082 40.8614 15.3244C40.4441 15.1405 40.0703 14.8702 39.7648 14.5313L30.6596 5.38387C29.3539 4.07795 27.8501 2.98702 26.2038 2.15155C22.8451 0.429008 19.0282 -0.185965 15.2992 0.394605C11.5702 0.975175 8.12018 2.72154 5.44265 5.38387C2.09213 9.28811 0.249878 14.265 0.249878 19.4122C0.249878 24.5594 2.09213 29.5362 5.44265 33.4404C11.4482 39.9051 26.0424 54.8707 32.5969 54.8707C37.6984 54.8707 47.7076 45.7879 54.6496 38.7091C56.3931 36.9637 57.8783 35.4768 59.1699 34.0223L59.6542 33.5051C63.0086 29.5848 64.8441 24.5883 64.8264 19.4265C64.8086 14.2646 62.9386 9.28094 59.5573 5.38387ZM38.9576 33.1819H35.7288V36.4142C35.7288 37.2714 35.3886 38.0936 34.7831 38.6998C34.1776 39.306 33.3563 39.6465 32.5 39.6465C31.6437 39.6465 30.8224 39.306 30.2169 38.6998C29.6114 38.0936 29.2712 37.2714 29.2712 36.4142V33.1819H26.0424C25.1861 33.1819 24.3648 32.8413 23.7593 32.2351C23.1538 31.6289 22.8136 30.8068 22.8136 29.9495C22.8136 29.0923 23.1538 28.2701 23.7593 27.6639C24.3648 27.0578 25.1861 26.7172 26.0424 26.7172H29.2712V23.4849C29.2712 22.6276 29.6114 21.8055 30.2169 21.1993C30.8224 20.5931 31.6437 20.2526 32.5 20.2526C33.3563 20.2526 34.1776 20.5931 34.7831 21.1993C35.3886 21.8055 35.7288 22.6276 35.7288 23.4849V26.7172H38.9576C39.8139 26.7172 40.6352 27.0578 41.2407 27.6639C41.8462 28.2701 42.1864 29.0923 42.1864 29.9495C42.1864 30.8068 41.8462 31.6289 41.2407 32.2351C40.6352 32.8413 39.8139 33.1819 38.9576 33.1819Z" fill="#F39770"/>
</g>
<defs>
<clipPath id="clip0_5_642">
<rect width="64.7778" height="55" fill="white" transform="translate(0.111084)"/>
</clipPath>
</defs>
</svg>
