<svg width="59" height="59" viewBox="0 0 59 59" fill="none" xmlns="http://www.w3.org/2000/svg">
<path d="M4.94897 31.1214L3.84164 35.0178C3.49774 36.2295 3.73541 37.4998 4.49343 38.5036C5.25326 39.5074 6.4092 40.0836 7.66777 40.0836H12.8331L12.2447 42.1533C11.8666 43.4821 12.1277 44.8757 12.9613 45.9776C13.7932 47.0805 15.0644 47.7124 16.4454 47.7124H42.5567C43.9377 47.7124 45.2089 47.0805 46.0407 45.9776C46.8744 44.8757 47.1355 43.4821 46.7573 42.1533L46.169 40.0836H51.3343C52.5929 40.0836 53.7488 39.5074 54.5086 38.5036C55.2667 37.4998 55.5043 36.2295 55.1604 35.0178L54.0531 31.1223C53.163 27.9845 50.4822 25.6996 47.3211 25.2292C48.3949 23.7747 49.0512 21.9952 49.0512 20.0527C49.0512 15.2209 45.1189 11.2895 40.2862 11.2895C37.3201 11.2895 34.704 12.7787 33.1177 15.04C31.9941 14.603 30.7773 14.354 29.501 14.354C28.2248 14.354 27.008 14.603 25.8843 15.04C24.2981 12.7787 21.682 11.2895 18.7158 11.2895C13.8832 11.2895 9.95085 15.2209 9.95085 20.0527C9.95085 21.9952 10.6071 23.7747 11.6809 25.2292C8.51988 25.6996 5.83911 27.9843 4.94897 31.1214ZM22.7425 16.9976C20.7427 18.831 19.4793 21.4554 19.4793 24.3757C19.4793 24.6028 19.4984 24.8252 19.5134 25.0486C19.2518 25.0903 18.989 25.1293 18.7158 25.1293C15.916 25.1293 13.6383 22.8516 13.6383 20.0527C13.6383 17.2537 15.916 14.977 18.7158 14.977C20.3627 14.977 21.8144 15.778 22.7425 16.9976ZM40.2862 14.977C43.0861 14.977 45.3637 17.2537 45.3637 20.0527C45.3637 22.8516 43.0861 25.1293 40.2862 25.1293C40.0131 25.1293 39.7502 25.0903 39.4887 25.0486C39.5037 24.8252 39.5228 24.6028 39.5228 24.3757C39.5228 21.4554 38.2594 18.831 36.2596 16.9976C37.1876 15.778 38.6394 14.977 40.2862 14.977ZM51.5666 36.2809C51.5072 36.3574 51.4297 36.3961 51.3343 36.3961H45.0143C43.6476 33.2478 40.6404 31.0792 37.2036 30.7774C37.7011 30.1799 38.1222 29.5194 38.4715 28.8168H46.1218C48.1492 28.8168 49.9515 30.1789 50.5061 32.1297L51.6134 36.0261C51.6404 36.1188 51.6242 36.2043 51.5666 36.2809ZM41.9013 38.5567L43.2103 43.1616C43.2895 43.4434 43.1743 43.654 43.0987 43.7549C43.023 43.8557 42.8502 44.025 42.5567 44.025H16.4454C16.1519 44.025 15.979 43.8557 15.9034 43.7549C15.8278 43.654 15.7126 43.4434 15.7918 43.1616L17.1008 38.5567C17.7976 36.108 20.0608 34.3975 22.6068 34.3975H36.3953C38.9412 34.3975 41.2045 36.108 41.9013 38.5567ZM35.8353 24.3757C35.8353 27.8688 32.9941 30.71 29.501 30.71C26.008 30.71 23.1668 27.8688 23.1668 24.3757C23.1668 20.8827 26.008 18.0415 29.501 18.0415C32.9941 18.0415 35.8353 20.8827 35.8353 24.3757ZM12.8803 28.8168H20.5306C20.8799 29.5194 21.301 30.1799 21.7985 30.7774C18.3617 31.0792 15.3545 33.2478 13.9878 36.3961H7.66777C7.57235 36.3961 7.49492 36.3574 7.4355 36.2809C7.37789 36.2043 7.36168 36.1188 7.38869 36.0261L8.49602 32.1288C9.05058 30.1789 10.8529 28.8168 12.8803 28.8168Z" fill="#F39770"/>
</svg>
