<svg width="49" height="59" viewBox="0 0 49 59" fill="none" xmlns="http://www.w3.org/2000/svg">
<path fill-rule="evenodd" clip-rule="evenodd" d="M42.4774 6.94359C44.2159 6.94359 45.6251 8.35766 45.6251 10.1019C45.6251 11.8462 44.2158 13.2602 42.4774 13.2602C40.7391 13.2602 39.3298 11.8462 39.3298 10.1019C39.3297 8.35766 40.739 6.94359 42.4774 6.94359ZM24.5206 21.5473C24.2481 21.5473 24.0334 21.6378 23.8825 21.8764C21.6128 25.4627 19.8041 27.8698 19.8259 32.6432C19.8456 36.9434 21.624 43.3801 22.6896 48.0454C22.7565 48.3392 22.7068 48.6476 22.5509 48.9052C22.395 49.1628 22.1452 49.3493 21.8546 49.4252L21.6675 49.4739C21.1521 49.6083 20.6292 49.3842 20.3696 48.9179L15.4159 40.0223C15.3523 39.9081 15.1771 39.9682 15.1966 40.0977L16.4908 48.6529C16.5181 48.8283 16.5086 49.0076 16.4631 49.1792C16.4176 49.3508 16.337 49.511 16.2264 49.6496C16.1158 49.7882 15.9776 49.9022 15.8207 49.9844C15.6638 50.0665 15.4915 50.1149 15.3149 50.1266L15.1025 50.1416C14.5414 50.181 14.0406 49.8684 13.8281 49.3459C11.4481 43.497 9.50389 37.5313 7.88361 31.4791C7.66455 30.6607 7.35702 29.9937 6.87745 29.2963C4.50874 25.8518 2.2841 22.2515 0.199548 18.4999C0.0266491 18.19 -0.0231357 17.8261 0.0601736 17.481C0.143483 17.1359 0.353728 16.8351 0.648755 16.639L0.753861 16.5689C1.39136 16.1435 2.25412 16.3101 2.68881 16.9426C3.78299 18.5346 4.99219 20.0439 6.30663 21.4583C8.03823 23.3219 9.88827 25.2618 12.5331 25.6254C15.5846 26.045 16.6186 24.851 18.522 22.9411C23.939 17.5057 25.0606 17.5057 30.4776 22.9411C32.381 24.851 33.415 26.045 36.4665 25.6254C39.1113 25.2618 40.9612 23.3219 42.6929 21.4583C44.0075 20.044 45.2167 18.5347 46.3108 16.9426C46.7454 16.3102 47.6082 16.1436 48.2457 16.5689L48.3508 16.639C48.6458 16.8351 48.8561 17.1359 48.9394 17.481C49.0227 17.8261 48.9729 18.19 48.8 18.4999C46.7155 22.2514 44.4908 25.8517 42.1221 29.2963C41.6425 29.9937 41.335 30.6607 41.116 31.4791C39.4957 37.5313 37.5515 43.497 35.1714 49.3459C34.9588 49.8684 34.458 50.181 33.8971 50.1416L33.6846 50.1266C33.508 50.1149 33.3358 50.0664 33.1789 49.9843C33.022 49.9022 32.8839 49.7882 32.7733 49.6496C32.6626 49.511 32.582 49.3508 32.5365 49.1792C32.491 49.0076 32.4815 48.8283 32.5088 48.6529L33.8029 40.0977C33.8225 39.9682 33.6473 39.9081 33.5836 40.0223L28.6299 48.9179C28.3703 49.3842 27.8475 49.6083 27.3321 49.4739L27.145 49.4252C26.8543 49.3493 26.6046 49.1628 26.4487 48.9052C26.2928 48.6476 26.243 48.3392 26.31 48.0454C27.3755 43.3801 29.154 36.9434 29.1737 32.6432C29.1956 27.8698 27.3868 25.4627 25.1171 21.8764C24.9839 21.6653 24.7697 21.5473 24.5206 21.5473ZM4.32402 37.2786L5.08735 36.4626C5.44083 36.085 5.43832 35.5572 5.09897 35.211C4.93537 35.0441 4.71248 34.9491 4.47918 34.9469C4.24588 34.9446 4.02122 35.0353 3.85447 35.1991L2.99501 36.1111C2.68392 36.4408 2.69924 37.0313 3.07939 37.3634C3.2558 37.5175 3.48586 37.595 3.71916 37.5791C3.95247 37.5632 4.16997 37.4552 4.32402 37.2786ZM2.32173 40.5581L2.70742 39.6732C2.91473 39.1927 2.7436 38.7024 2.308 38.4866C2.09877 38.383 1.85718 38.3669 1.63615 38.4418C1.41511 38.5166 1.23265 38.6763 1.12873 38.8859L0.674371 39.9286C0.497039 40.3399 0.71372 40.8922 1.18722 41.0712C1.40551 41.1536 1.64747 41.1459 1.8601 41.0498C2.07274 40.9536 2.23873 40.7768 2.32173 40.5581ZM1.78419 43.9696L1.78405 43.0684C1.78405 42.5423 1.4389 42.1607 0.952188 42.1339C0.719353 42.1211 0.490943 42.2014 0.316967 42.3572C0.142991 42.513 0.037624 42.7316 0.0239323 42.9652L0.0236684 44.0595C0.0236684 44.501 0.443298 44.9258 0.952188 44.8978C1.18504 44.885 1.40334 44.7801 1.55929 44.6062C1.71523 44.4322 1.7961 44.2033 1.78419 43.9696ZM2.70954 47.3633L2.32384 46.4792C2.11442 45.9984 1.6425 45.7887 1.18722 45.9608C0.968952 46.0433 0.792157 46.2092 0.695562 46.4222C0.598966 46.6352 0.590445 46.878 0.671863 47.0973L1.12622 48.1408C1.30263 48.5497 1.85311 48.7705 2.30786 48.5454C2.51709 48.4418 2.67685 48.2593 2.75214 48.0377C2.82744 47.8161 2.81211 47.5736 2.70954 47.3633ZM5.09052 50.5724L4.32679 49.7564C3.9679 49.3785 3.44594 49.3486 3.07952 49.6686C2.90318 49.8226 2.79491 50.0405 2.77845 50.2745C2.76199 50.5085 2.83868 50.7395 2.99171 50.9169L3.85131 51.8295C4.16438 52.1623 4.74813 52.1789 5.09897 51.8209C5.26253 51.654 5.35348 51.4289 5.3519 51.1949C5.35032 50.9609 5.25632 50.737 5.09052 50.5724ZM8.82876 53.3582C9.03142 53.4751 9.17957 53.6679 9.24072 53.8943C9.30186 54.1207 9.271 54.3622 9.15491 54.5658C8.9072 55.0004 8.34166 55.1363 7.94857 54.8938L6.75663 54.1608C6.5612 54.032 6.4247 53.8307 6.37707 53.601C6.32944 53.3713 6.37458 53.132 6.50258 52.9357C6.76759 52.5293 7.29245 52.4121 7.72555 52.68L8.82876 53.3582ZM13.6789 55.4869C13.9009 55.5599 14.085 55.7182 14.1908 55.9271C14.2966 56.1361 14.3155 56.3787 14.2433 56.6016C14.09 57.0747 13.5699 57.3251 13.1302 57.1689L11.6838 56.6563C11.4653 56.5724 11.289 56.405 11.1934 56.1908C11.0979 55.9766 11.091 55.7331 11.1742 55.5138C11.3465 55.0598 11.8391 54.8313 12.314 55.0016L13.6789 55.4869ZM19.3025 56.7808C19.5341 56.8139 19.7431 56.938 19.8835 57.1258C20.0239 57.3135 20.0843 57.5495 20.0513 57.7819C20.0183 58.0143 19.8946 58.224 19.7075 58.3649C19.5204 58.5059 19.2852 58.5664 19.0536 58.5333L17.4494 58.2678C17.2198 58.2253 17.0164 58.0932 16.8839 57.9003C16.7514 57.7075 16.7006 57.4698 16.7427 57.2394C16.8308 56.7566 17.2894 56.4444 17.7684 56.5295L19.3025 56.7808ZM25.2956 57.1388C25.5288 57.1346 25.7541 57.2234 25.922 57.3858C26.09 57.5481 26.1869 57.7707 26.1915 58.0046C26.2011 58.4987 25.798 58.9052 25.3272 58.9052H23.6702C23.4369 58.9003 23.2152 58.8028 23.0536 58.6339C22.892 58.4651 22.8038 58.2388 22.8083 58.0048C22.8178 57.5203 23.2045 57.1389 23.7063 57.1389L25.2956 57.1388ZM31.2335 56.529C31.4631 56.4871 31.6999 56.5385 31.8918 56.6716C32.0838 56.8048 32.2152 57.0089 32.2573 57.2392C32.3441 57.7148 32.0268 58.1867 31.5483 58.268L29.9464 58.5332C29.7149 58.5659 29.48 58.5051 29.2932 58.3641C29.1064 58.2232 28.9829 58.0136 28.95 57.7814C28.88 57.2875 29.2192 56.8616 29.6996 56.7804L31.2335 56.529ZM36.6882 55.0008C36.9069 54.9177 37.1494 54.9251 37.3627 55.0213C37.5759 55.1175 37.7424 55.2947 37.8256 55.5139C37.9969 55.9652 37.7701 56.4924 37.3131 56.6573L35.8666 57.17C35.6443 57.2421 35.4025 57.2227 35.1944 57.1161C34.9863 57.0096 34.8288 56.8245 34.7565 56.6016C34.6071 56.1401 34.8445 55.657 35.3237 55.486L36.6882 55.0008ZM41.2771 52.6782C41.473 52.5503 41.7114 52.5055 41.9402 52.5538C42.169 52.6021 42.3693 52.7394 42.4973 52.9357C42.7705 53.3546 42.6339 53.9219 42.24 54.1628L41.048 54.8957C40.8448 55.0118 40.604 55.0423 40.3784 54.9805C40.1529 54.9187 39.961 54.7696 39.8448 54.566C39.6043 54.1442 39.7374 53.6266 40.1737 53.3566L41.2771 52.6782ZM44.6758 49.7534L43.9125 50.5692C43.559 50.9468 43.5615 51.4747 43.9009 51.8209C44.0645 51.9878 44.2874 52.0827 44.5207 52.085C44.7539 52.0872 44.9786 51.9965 45.1454 51.8328L46.0048 50.9209C46.316 50.5912 46.3006 50.0007 45.9204 49.6686C45.7441 49.5145 45.514 49.4369 45.2807 49.4528C45.0474 49.4687 44.8298 49.5768 44.6758 49.7534ZM46.6781 46.4739L46.2924 47.3588C46.0851 47.8393 46.2562 48.3296 46.6918 48.5454C46.9011 48.649 47.1427 48.6651 47.3637 48.5902C47.5847 48.5154 47.7672 48.3557 47.8711 48.1461L48.3255 47.1034C48.5028 46.6921 48.2861 46.1398 47.8126 45.9608C47.5943 45.8783 47.3524 45.886 47.1397 45.9822C46.9271 46.0784 46.7611 46.2552 46.6781 46.4739ZM47.2156 43.0624L47.2158 43.9635C47.2158 44.4896 47.5609 44.8712 48.0476 44.8979C48.2805 44.9108 48.5089 44.8305 48.6829 44.6747C48.8568 44.5189 48.9622 44.3003 48.9759 44.0667L48.976 42.9723C48.976 42.5309 48.5564 42.1061 48.0475 42.1341C47.8147 42.1469 47.5964 42.2518 47.4405 42.4258C47.2845 42.5998 47.2037 42.8287 47.2156 43.0624ZM46.2903 39.6685L46.676 40.5526C46.8854 41.0334 47.3573 41.2432 47.8126 41.0711C48.0309 40.9886 48.2076 40.8226 48.3042 40.6096C48.4008 40.3966 48.4094 40.1539 48.328 39.9346L47.8736 38.8911C47.6972 38.4822 47.1467 38.2613 46.692 38.4864C46.4828 38.5901 46.323 38.7726 46.2477 38.9942C46.1725 39.2158 46.1878 39.4583 46.2903 39.6685ZM43.9093 36.4596L44.673 37.2756C45.0319 37.6535 45.5539 37.6834 45.9202 37.3634C46.0965 37.2094 46.2048 36.9915 46.2213 36.7575C46.2377 36.5235 46.161 36.2925 46.008 36.1151L45.1484 35.2025C44.8353 34.8697 44.2516 34.8531 43.9007 35.2111C43.7372 35.378 43.6463 35.6031 43.6479 35.8371C43.6495 36.0711 43.7435 36.295 43.9093 36.4596ZM24.4999 0.0948486C26.2384 0.0948486 27.6475 1.50893 27.6475 3.25317C27.6475 4.99755 26.2383 6.4115 24.4999 6.4115C22.7616 6.4115 21.3523 4.99742 21.3523 3.25317C21.3523 1.50893 22.7616 0.0948486 24.4999 0.0948486ZM13.2329 18.0852C11.4944 18.0852 10.0853 19.4993 10.0853 21.2435C10.0853 22.9879 11.4946 24.4018 13.2329 24.4018C14.9714 24.4018 16.3805 22.9877 16.3805 21.2435C16.3805 19.4993 14.9712 18.0852 13.2329 18.0852ZM35.7257 18.1738C33.9873 18.1738 32.5781 19.5879 32.5781 21.3321C32.5781 23.0764 33.9874 24.4905 35.7257 24.4905C37.4641 24.4905 38.8734 23.0764 38.8734 21.3321C38.8734 19.5879 37.4642 18.1738 35.7257 18.1738ZM33.3988 0.169176C32.8121 -0.0196237 32.1897 0.227075 31.8898 0.767109C30.5786 3.12916 29.0746 5.02153 27.3663 6.41587C25.6788 7.79325 23.321 7.79325 21.6335 6.41587C19.9253 5.02153 18.4212 3.12903 17.11 0.767109C16.5655 -0.213856 15.1397 -0.0345952 14.7374 0.914042C13.9927 2.67048 13.1451 5.86961 11.881 8.61775C10.5384 11.5364 10.1971 13.5402 6.67714 14.3489C5.48533 14.6228 4.15579 14.6542 2.73436 14.5239C2.43449 14.4965 2.51147 14.7159 2.60113 14.748C3.22707 14.9711 3.76688 15.3867 4.14365 15.9356C5.40306 17.7679 6.67621 19.2877 8.18519 20.8773C8.2003 20.8933 8.21957 20.9048 8.24084 20.9103C8.2621 20.9159 8.2845 20.9154 8.30549 20.9088C8.32648 20.9023 8.34521 20.89 8.35956 20.8733C8.37392 20.8566 8.38331 20.8362 8.38669 20.8144C8.81384 18.126 11.3703 16.2696 14.0827 16.747C14.0985 16.7499 14.1147 16.7495 14.1303 16.7458C14.1459 16.7421 14.1606 16.7353 14.1735 16.7257C14.1863 16.7161 14.1971 16.704 14.2051 16.6901C14.2131 16.6761 14.2182 16.6607 14.22 16.6447C14.6538 13.0116 15.4818 9.5155 16.4473 5.84709C16.4751 5.74189 16.6192 5.72745 16.6669 5.82523C18.2119 8.98382 19.7302 12.3396 20.2822 15.1815C20.4557 16.0746 20.5913 17.0123 20.6954 17.9862C20.6977 18.0079 20.7059 18.0286 20.7191 18.0459C20.7324 18.0632 20.7502 18.0764 20.7705 18.0842C20.7909 18.092 20.8129 18.094 20.8343 18.0899C20.8557 18.0858 20.8755 18.0759 20.8916 18.0612C21.3819 17.6152 22.8626 16.8676 24.4998 16.8492C25.8889 16.8337 27.4364 17.4548 28.1093 18.0568C28.1254 18.0713 28.1452 18.0811 28.1666 18.085C28.1879 18.089 28.2099 18.0869 28.2301 18.0791C28.2503 18.0713 28.268 18.058 28.2812 18.0408C28.2944 18.0235 28.3026 18.0029 28.3048 17.9813C28.4089 17.0089 28.5442 16.073 28.7175 15.1815C29.2695 12.3394 30.7879 8.98382 32.3328 5.82523C32.3806 5.72745 32.5248 5.74189 32.5524 5.84709C33.5163 9.50915 34.3431 12.9995 34.7774 16.6258C34.7792 16.6416 34.7842 16.6569 34.7921 16.6707C34.8 16.6845 34.8106 16.6966 34.8233 16.7062C34.8359 16.7157 34.8504 16.7227 34.8658 16.7265C34.8812 16.7303 34.8972 16.7309 34.9129 16.7283C37.6294 16.2927 40.155 18.1795 40.5513 20.8682C40.5545 20.8901 40.5637 20.9106 40.578 20.9275C40.5923 20.9444 40.611 20.9569 40.632 20.9637C40.653 20.9704 40.6755 20.971 40.6969 20.9655C40.7183 20.96 40.7376 20.9486 40.7528 20.9325C42.123 19.4958 45.0092 15.2473 46.3771 14.7484C46.475 14.7126 46.5236 14.5001 46.2651 14.5238C44.8438 14.654 43.5142 14.6226 42.3223 14.3488C38.8022 13.5401 38.4609 11.5364 37.1184 8.61761C35.8546 5.87014 35.0064 2.66942 34.2621 0.91391C34.0868 0.500139 33.8072 0.30074 33.3988 0.169176ZM6.78753 6.99685C8.52599 6.99685 9.93514 8.41093 9.93514 10.1552C9.93514 11.8996 8.52586 13.3135 6.78753 13.3135C5.04919 13.3135 3.6399 11.8994 3.6399 10.1552C3.63977 8.41093 5.04906 6.99685 6.78753 6.99685Z" fill="#F39770"/>
</svg>
