<svg width="55" height="55" viewBox="0 0 55 55" fill="none" xmlns="http://www.w3.org/2000/svg">
<path fill-rule="evenodd" clip-rule="evenodd" d="M44.2309 50.3581C43.8876 52.0769 42.3621 53.3824 40.5462 53.3824H14.6415C12.8282 53.3824 11.303 52.0769 10.9599 50.3581C12.9353 50.3416 14.7515 49.6514 16.1894 48.5063H39.0013C40.4392 49.6514 42.2553 50.3416 44.2309 50.3581ZM32.7179 50.8091C32.7179 50.5374 32.6099 50.2768 32.4178 50.0847C32.2257 49.8926 31.9651 49.7846 31.6934 49.7846H23.4973C23.2256 49.7846 22.965 49.8926 22.7728 50.0847C22.5807 50.2768 22.4728 50.5374 22.4728 50.8091C22.4728 51.0809 22.5807 51.3414 22.7728 51.5336C22.965 51.7257 23.2256 51.8337 23.4973 51.8337H31.6934C31.9651 51.8337 32.2257 51.7257 32.4178 51.5336C32.6099 51.3414 32.7179 51.0809 32.7179 50.8091ZM11.2188 3.83666C11.809 2.53143 13.1245 1.61768 14.6415 1.61768H40.5462C42.0618 1.61768 43.3754 2.52712 43.9677 3.82738C41.6623 3.91678 39.5907 4.92415 38.1085 6.4938H16.8914C15.4494 4.96664 13.4493 3.97168 11.2188 3.83666ZM35.2595 4.50485C35.2596 4.37883 35.2348 4.25403 35.1866 4.13758C35.1383 4.02114 35.0677 3.91534 34.9785 3.82623C34.8894 3.73711 34.7836 3.66643 34.6672 3.61822C34.5507 3.57001 34.4259 3.54522 34.2999 3.54526H25.8487C25.5942 3.54526 25.3501 3.64636 25.1702 3.82632C24.9902 4.00628 24.8891 4.25035 24.8891 4.50485V4.50528C24.8891 4.63131 24.9139 4.7561 24.9621 4.87254C25.0103 4.98897 25.081 5.09477 25.1701 5.18388C25.2592 5.27299 25.365 5.34367 25.4814 5.39189C25.5979 5.4401 25.7227 5.4649 25.8487 5.46487H34.2999C34.4259 5.46489 34.5507 5.44008 34.6672 5.39186C34.7836 5.34364 34.8894 5.27296 34.9785 5.18385C35.0676 5.09474 35.1383 4.98895 35.1865 4.87252C35.2347 4.75609 35.2595 4.6313 35.2595 4.50528V4.50485ZM21.2793 3.15703C20.5353 3.15703 19.9312 3.76117 19.9312 4.50507C19.9312 5.24908 20.5353 5.85311 21.2793 5.85311C22.0233 5.85311 22.6273 5.24908 22.6273 4.50507C22.6273 3.76117 22.0233 3.15703 21.2793 3.15703ZM37.5234 46.9965H17.6674C18.7589 45.5643 19.4073 43.7767 19.4073 41.8387C19.4073 37.1367 15.5898 33.3191 10.8877 33.3191V20.8581C15.5019 20.7565 19.2165 16.9789 19.2165 12.3405C19.2165 10.7573 18.7838 9.27432 18.0302 8.00361H36.9698C36.2162 9.27432 35.7834 10.7573 35.7834 12.3405C35.7834 17.0426 39.6009 20.8601 44.303 20.8601V33.3191C39.6009 33.3191 35.7834 37.1367 35.7834 41.8387C35.7834 43.7767 36.4319 45.5643 37.5234 46.9965ZM27.5 18.6617C25.6257 18.6617 24.104 20.1834 24.104 22.0577C24.104 23.932 25.6257 25.4538 27.5 25.4538C29.3743 25.4538 30.896 23.932 30.896 22.0577C30.896 20.1834 29.3743 18.6617 27.5 18.6617ZM34.1222 33.5949C34.1222 29.9384 31.1564 26.9742 27.5 26.9742C23.842 26.9742 20.8778 29.9384 20.8778 33.5949C20.8778 37.2528 34.1222 37.2528 34.1222 33.5949ZM44.303 5.33072C48.1718 5.33072 51.3128 8.47175 51.3128 12.3405C51.3128 16.2094 48.1718 19.3503 44.303 19.3503C40.4341 19.3503 37.2932 16.2094 37.2932 12.3405C37.2932 8.47175 40.4341 5.33072 44.303 5.33072ZM44.4917 10.3361C44.4717 10.3679 44.4439 10.394 44.4108 10.4119C44.3778 10.4298 44.3408 10.439 44.3032 10.4385C44.2657 10.4391 44.2286 10.43 44.1955 10.4121C44.1625 10.3941 44.1347 10.368 44.1147 10.3361C43.6662 9.64627 43.1701 9.30118 42.2874 9.30118C41.1748 9.30118 40.2721 10.1072 40.2721 11.0999C40.2721 12.8539 42.1889 14.6078 44.1533 16.3612C44.1944 16.3983 44.2477 16.4187 44.303 16.4187C44.3583 16.4187 44.4116 16.3983 44.4527 16.3612C46.4172 14.6078 48.334 12.8539 48.334 11.0999C48.334 10.1072 47.4312 9.30118 46.3186 9.30118C45.4359 9.30118 44.9398 9.64627 44.4917 10.3361ZM44.303 34.8289C48.1718 34.8289 51.3128 37.97 51.3128 41.8387C51.3128 45.7076 48.1718 48.8486 44.303 48.8486C40.4341 48.8486 37.2932 45.7076 37.2932 41.8387C37.2932 37.97 40.4341 34.8289 44.303 34.8289ZM47.8967 41.8387L42.7202 38.485V45.1926L47.8967 41.8387ZM3.89031 41.419C4.10772 37.7453 7.15979 34.8289 10.8877 34.8289C14.6415 34.8289 17.7101 37.7859 17.8892 41.4956L15.5827 39.1371C15.4421 38.9933 15.2741 38.8791 15.0888 38.8011C14.9034 38.7231 14.7044 38.6829 14.5033 38.6829C14.3022 38.6829 14.1031 38.7231 13.9177 38.8011C13.7324 38.8791 13.5645 38.9933 13.4239 39.1371L11.6344 40.9668L9.07304 38.2596C8.93194 38.1105 8.76191 37.9917 8.57334 37.9106C8.38477 37.8294 8.18163 37.7875 7.97633 37.7875C7.77103 37.7875 7.56788 37.8294 7.37931 37.9106C7.19074 37.9917 7.02071 38.1105 6.87961 38.2596L3.89031 41.419ZM4.06092 43.4355L7.97627 39.2972L11.6165 43.1446L14.5033 40.1927L17.7067 43.4685C16.9714 46.5525 14.1956 48.8486 10.8877 48.8486C7.56808 48.8486 4.78433 46.5361 4.06092 43.4355ZM10.6969 5.33072C14.5658 5.33072 17.7067 8.47175 17.7067 12.3405C17.7067 16.2094 14.5658 19.3503 10.6969 19.3503C6.82817 19.3503 3.68713 16.2094 3.68713 12.3405C3.68713 8.47175 6.82817 5.33072 10.6969 5.33072ZM10.6969 7.73724L9.61948 11.0533H6.1328L8.95355 13.1028L7.87619 16.4188L10.6969 14.3694L13.5177 16.4188L12.4403 13.1028L15.2611 11.0533H11.7744L10.6969 7.73724Z" fill="#F39770"/>
</svg>
