<svg width="53" height="53" viewBox="0 0 53 53" fill="none" xmlns="http://www.w3.org/2000/svg">
<path d="M35.8634 4.96875C35.8634 4.05409 35.1226 3.3125 34.2071 3.3125H12.2618C9.52997 3.3125 7.30762 5.53485 7.30762 8.26669V38.2037C7.30762 39.1192 8.0484 39.86 8.96387 39.86C9.87933 39.86 10.6201 39.1192 10.6201 38.2037V8.26669C10.6201 7.36174 11.356 6.625 12.2618 6.625H34.2071C35.1226 6.625 35.8634 5.88341 35.8634 4.96875Z" fill="#F39770"/>
<path d="M18.7931 49.6883H40.7384C43.4702 49.6883 45.6926 47.466 45.6926 44.7341V14.7979C45.6926 12.066 43.4702 9.84369 40.7384 9.84369H18.7931C16.0612 9.84369 13.8389 12.066 13.8389 14.7979V44.7341C13.8389 47.466 16.0612 49.6883 18.7931 49.6883ZM17.1514 14.7979C17.1514 13.8929 17.8873 13.1562 18.7931 13.1562H40.7384C41.6441 13.1562 42.3801 13.8929 42.3801 14.7979V44.7341C42.3801 45.6399 41.6441 46.3758 40.7384 46.3758H18.7931C17.8873 46.3758 17.1514 45.6399 17.1514 44.7341V14.7979Z" fill="#F39770"/>
<path d="M38.4058 28.111H21.1235C20.2081 28.111 19.4673 28.8517 19.4673 29.7672C19.4673 30.6827 20.2081 31.4235 21.1235 31.4235H38.4058C39.3213 31.4235 40.062 30.6827 40.062 29.7672C40.062 28.8517 39.3213 28.111 38.4058 28.111Z" fill="#F39770"/>
<path d="M21.1204 22.7767H38.4059C39.3213 22.7767 40.0621 22.0351 40.0621 21.1204C40.0621 20.2058 39.3213 19.4642 38.4059 19.4642H21.1204C20.2049 19.4642 19.4641 20.2058 19.4641 21.1204C19.4641 22.0351 20.2049 22.7767 21.1204 22.7767Z" fill="#F39770"/>
<path d="M29.5229 36.7545H21.1235C20.2081 36.7545 19.4673 37.4953 19.4673 38.4108C19.4673 39.3262 20.2081 40.067 21.1235 40.067H29.5229C30.4383 40.067 31.1791 39.3262 31.1791 38.4108C31.1791 37.4953 30.4383 36.7545 29.5229 36.7545Z" fill="#F39770"/>
</svg>
