<svg width="55" height="55" viewBox="0 0 55 55" fill="none" xmlns="http://www.w3.org/2000/svg">
<path fill-rule="evenodd" clip-rule="evenodd" d="M5.58325 9.69869H14.1094V6.38397H5.68272C3.50249 6.38397 1.71875 8.16772 1.71875 10.3478V37.6177C1.71875 39.798 3.50249 41.5817 5.68272 41.5817H19.3974V47.8795H13.3637C11.5045 47.8795 9.98336 49.0949 9.98336 50.5803V53.2812H45.0167V50.5803C45.0167 49.0948 43.4957 47.8795 41.6364 47.8795H35.6027V41.5817H49.3174C51.4975 41.5817 53.2814 39.7979 53.2814 37.6177V10.3478C53.2814 8.16772 51.4976 6.38387 49.3174 6.38387H31.5117V9.69858H49.4166C49.719 9.69858 49.9664 9.94598 49.9664 10.2483V34.9044H37.9932V36.7152C37.9932 38.1521 36.8177 39.3276 35.3808 39.3276H23.2033C21.7665 39.3276 20.5909 38.1521 20.5909 36.7152V34.9044H5.03347V10.2484C5.03347 9.94608 5.28086 9.69869 5.58325 9.69869ZM28.8993 1.71875H16.7218C16.2304 1.71875 15.8282 2.12094 15.8282 2.61239V14.7898C15.8282 15.2814 16.2304 15.6835 16.7218 15.6835H28.8993C29.3908 15.6835 29.7929 15.2813 29.7929 14.7898V2.61239C29.793 2.12094 29.3908 1.71875 28.8993 1.71875ZM26.0538 8.44476C25.9819 8.62867 25.8489 8.78218 25.677 8.87937C25.5051 8.97657 25.305 9.0115 25.1104 8.97828C24.9157 8.94506 24.7385 8.84571 24.6086 8.69701C24.4787 8.54831 24.4041 8.35935 24.3973 8.16202C24.3957 9.39995 24.3957 10.6379 24.3957 11.8758C24.3957 13.3116 23.2314 14.4759 21.7956 14.4759C20.3598 14.4759 19.1954 13.3116 19.1954 11.8758C19.1954 10.4399 20.3597 9.27566 21.7956 9.27566C22.1074 9.27566 22.4065 9.33066 22.6835 9.43132L22.691 3.78576C22.6911 3.60573 22.7479 3.4303 22.8534 3.28441C22.9589 3.13852 23.1077 3.02959 23.2786 2.97312C23.4496 2.91665 23.634 2.91551 23.8056 2.96985C23.9773 3.02419 24.1274 3.13126 24.2347 3.27583C24.4263 3.53311 24.6938 3.77856 24.9549 4.01887C26.0328 5.01166 27.0371 5.93656 26.0538 8.44476ZM24.4003 5.927C24.6973 6.35766 24.8139 6.90712 24.4558 7.82031C24.4207 7.90976 24.401 8.00447 24.3973 8.10047L24.4003 5.927ZM21.7957 10.9944C21.9114 10.9944 22.0261 11.0172 22.133 11.0614C22.24 11.1057 22.3371 11.1707 22.419 11.2525C22.5008 11.3344 22.5658 11.4315 22.61 11.5385C22.6543 11.6454 22.6771 11.7601 22.6771 11.8758C22.6771 11.9916 22.6543 12.1062 22.61 12.2131C22.5657 12.3201 22.5008 12.4172 22.419 12.4991C22.3371 12.5809 22.2399 12.6459 22.133 12.6901C22.0261 12.7344 21.9114 12.7572 21.7957 12.7572C21.3087 12.7572 20.9143 12.3628 20.9143 11.8758C20.9143 11.3889 21.3087 10.9944 21.7957 10.9944ZM35.3808 23.6442H23.2033C22.7118 23.6442 22.3097 24.0464 22.3097 24.5378V32.7736L25.9242 30.0344C26.1043 29.8985 26.3306 29.839 26.5542 29.8687C26.7778 29.8984 26.9807 30.015 27.119 30.1932L29.0006 32.3158L32.5541 29.0731C32.9235 28.7048 33.5353 28.7459 33.8494 29.1668L36.2745 32.4148V24.5377C36.2745 24.0464 35.8724 23.6442 35.3808 23.6442ZM28.114 28.6915C27.4122 28.6915 26.8432 28.1226 26.8432 27.4207C26.8432 26.7189 27.4121 26.1499 28.114 26.1499C28.8159 26.1499 29.3848 26.7189 29.3848 27.4207C29.3848 28.1225 28.8159 28.6915 28.114 28.6915ZM36.2745 35.2855V36.7154C36.2745 37.207 35.8724 37.609 35.3809 37.609H23.2033C22.7118 37.609 22.3097 37.2069 22.3097 36.7154V34.9267L26.3277 31.8818L27.7357 33.4702L27.1003 34.05C27.017 34.1259 26.9494 34.2174 26.9014 34.3193C26.8535 34.4212 26.826 34.5316 26.8208 34.6441C26.8155 34.7567 26.8324 34.8691 26.8706 34.9751C26.9087 35.0811 26.9674 35.1786 27.0432 35.2619C27.1191 35.3452 27.2106 35.4128 27.3125 35.4607C27.4144 35.5087 27.5248 35.5361 27.6373 35.5414C27.7499 35.5467 27.8623 35.5298 27.9683 35.4916C28.0743 35.4534 28.1718 35.3947 28.2551 35.3189L33.0395 30.9529L36.2745 35.2855ZM22.5293 18.3241H10.3518C9.86025 18.3241 9.45817 18.7263 9.45817 19.2178V31.3952C9.45817 31.8868 9.86036 32.2889 10.3518 32.2889H20.5909V24.5378C20.5909 23.101 21.7665 21.9254 23.2033 21.9254H23.4228V19.2178C23.4229 18.7263 23.0207 18.3241 22.5293 18.3241ZM19.6737 25.6953L14.8108 28.5029C14.668 28.5853 14.5046 28.5853 14.3619 28.5029C14.2192 28.4205 14.1375 28.279 14.1375 28.1141V22.499C14.1375 22.3342 14.2192 22.1927 14.3619 22.1103C14.5046 22.0279 14.668 22.0279 14.8108 22.1103L19.6737 24.9179C19.8164 25.0003 19.8981 25.1418 19.8981 25.3067C19.8981 25.4713 19.8164 25.6128 19.6737 25.6953ZM45.7225 13.1707H33.5451C33.0535 13.1707 32.6514 13.5729 32.6514 14.0643V21.9254H35.3809C36.1448 21.9254 36.8349 22.2577 37.3136 22.7848H43.2951C43.523 22.7848 43.7416 22.8754 43.9028 23.0365C44.0639 23.1977 44.1545 23.4163 44.1545 23.6442C44.1545 23.8721 44.0639 24.0907 43.9028 24.2519C43.7416 24.413 43.523 24.5036 43.2951 24.5036H37.993C37.9931 24.5151 37.9934 24.5263 37.9934 24.5378V27.1354H45.7226C46.2142 27.1354 46.6163 26.7332 46.6163 26.2418V14.0643C46.6161 13.5729 46.214 13.1707 45.7225 13.1707ZM43.295 21.0125H35.9725C35.7445 21.0125 35.526 20.9219 35.3648 20.7608C35.2036 20.5996 35.1131 20.381 35.1131 20.1531C35.1131 19.9252 35.2036 19.7066 35.3648 19.5454C35.526 19.3843 35.7445 19.2937 35.9725 19.2937H43.295C43.5229 19.2937 43.7415 19.3843 43.9027 19.5454C44.0638 19.7066 44.1544 19.9252 44.1544 20.1531C44.1544 20.381 44.0638 20.5996 43.9027 20.7608C43.7415 20.9219 43.5229 21.0125 43.295 21.0125ZM43.295 17.5213H35.9725C35.7445 17.5213 35.526 17.4307 35.3648 17.2696C35.2036 17.1084 35.1131 16.8898 35.1131 16.6619C35.1131 16.434 35.2036 16.2154 35.3648 16.0542C35.526 15.8931 35.7445 15.8025 35.9725 15.8025H43.295C43.5229 15.8025 43.7415 15.8931 43.9027 16.0542C44.0638 16.2154 44.1544 16.434 44.1544 16.6619C44.1544 16.8898 44.0638 17.1084 43.9027 17.2696C43.7415 17.4307 43.5229 17.5213 43.295 17.5213Z" fill="#F39770"/>
</svg>
